# xmcd
#
# Track frame offsets: 
#        150
#        12352
#        27728
#        38110
#        49209
#        60424
#        73457
#        81946
#        97837
#        112402
#        127628
#        138449
#
# Disc length: 2033 seconds
#
# Revision: 0
# Processed by: cddbd v1.5.2PL0 Copyright (c) Steve Scherf et al.
# Submitted via: ExactAudioCopy v0.99pb4
#
DISCID=a807ef0c
DTITLE=B. B. King - Early Blues
DYEAR=2007
DGENRE=Blues
TTITLE0=I Gotta Find My Baby
TTITLE1=My Own Fault Darlin'
TTITLE2=That Ain't the Way to Do It
TTITLE3=B.B.'s Blues
TTITLE4=She's Dynamite
TTITLE5=Questionnaire Blues
TTITLE6=A New Way of Driving
TTITLE7=The Other Night Blues
TTITLE8=B.B.'s Boogie
TTITLE9=Walkin' and Cryin'
TTITLE10=Everything I Do Is Wrong
TTITLE11=She Don't Move Me No More
EXTD=
EXTT0=
EXTT1=
EXTT2=
EXTT3=
EXTT4=
EXTT5=
EXTT6=
EXTT7=
EXTT8=
EXTT9=
EXTT10=
EXTT11=
PLAYORDER=
